<svg width="567" height="413" viewBox="0 0 567 413" fill="none" xmlns="http://www.w3.org/2000/svg">
<path d="M448 50L445.512 234.842L338 282L340.488 97.159L448 50Z" fill="#F3BC2C"/>
<path d="M482.245 35L567 183.265L452 231L454.625 46.4647L482.245 35Z" fill="#F3BC2C"/>
<path d="M0 248.125L216 154L213.523 336.804L79.9746 395L0 248.125Z" fill="#F3BC2C"/>
<path d="M332 102L329.512 286.044L222 333L224.488 148.956L332 102Z" fill="#F3BC2C"/>
<path d="M294.566 242.034L297.589 312.822C297.589 312.822 289.728 379.818 291.542 381.714C293.356 383.61 298.194 387.402 294.566 391.827C290.937 396.251 277.633 399.411 277.028 396.883C276.424 394.355 275.214 322.303 275.214 322.303L270.981 236.978L294.566 242.034Z" fill="#2F2E41"/>
<path opacity="0.2" d="M294.566 242.034L297.589 312.822C297.589 312.822 289.728 379.818 291.542 381.714C293.356 383.61 298.194 387.402 294.566 391.827C290.937 396.251 277.633 399.411 277.028 396.883C276.424 394.355 275.214 322.303 275.214 322.303L270.981 236.978L294.566 242.034Z" fill="black"/>
<path d="M291.542 390.563C291.542 390.563 306.66 402.571 308.475 402.571C310.289 402.571 326.617 408.26 315.127 410.788C303.637 413.316 275.819 412.052 275.214 408.26C274.609 404.468 277.028 392.959 277.028 392.959L291.542 390.563Z" fill="#2F2E41"/>
<path opacity="0.2" d="M291.542 390.563C291.542 390.563 306.66 402.571 308.475 402.571C310.289 402.571 326.617 408.26 315.127 410.788C303.637 413.316 275.819 412.052 275.214 408.26C274.609 404.468 277.028 392.959 277.028 392.959L291.542 390.563Z" fill="black"/>
<path d="M329.036 188.944C329.036 188.944 335.688 191.472 335.688 193.368C335.688 195.264 341.735 219.281 342.945 220.545C344.154 221.809 344.759 227.498 344.759 227.498C344.759 227.498 350.806 242.035 349.597 242.035C348.387 242.035 338.107 239.506 337.502 242.035C336.897 244.563 332.059 226.234 332.059 226.234L321.779 204.744L329.036 188.944Z" fill="#CECCC6"/>
<path d="M349.597 244.563C349.597 244.563 347.783 258.467 342.945 259.731C338.107 260.995 342.945 242.034 342.945 242.034L349.597 244.563Z" fill="#FFB8B8"/>
<path d="M333.874 181.359C333.874 181.359 330.245 189.575 328.431 194C326.617 198.424 309.684 182.623 309.684 182.623C309.684 182.623 318.755 175.671 318.755 172.511C318.755 169.35 333.874 181.359 333.874 181.359Z" fill="#FFB8B8"/>
<path d="M508.317 386.806C504.261 402.474 490.37 412.178 490.37 412.178C490.37 412.178 483.054 396.478 487.11 380.81C491.165 365.141 505.056 355.437 505.056 355.437C505.056 355.437 512.372 371.137 508.317 386.806Z" fill="#3F3D56"/>
<path d="M502.357 383.438C491.229 394.761 489.87 412.165 489.87 412.165C489.87 412.165 506.553 411.213 517.682 399.891C528.81 388.569 530.17 371.164 530.17 371.164C530.17 371.164 513.486 372.116 502.357 383.438Z" fill="#F3BC2C"/>
<path d="M364.11 412.684C374.995 412.684 385.634 409.311 394.684 402.991C403.734 396.671 410.787 387.688 414.953 377.179C419.118 366.669 420.208 355.105 418.084 343.948C415.961 332.791 410.72 322.543 403.023 314.499C395.327 306.456 385.522 300.978 374.847 298.759C364.172 296.539 353.107 297.679 343.051 302.032C332.995 306.385 324.401 313.757 318.354 323.215C312.307 332.673 309.079 343.793 309.079 355.169C309.096 370.418 314.899 385.037 325.216 395.819C335.533 406.602 349.52 412.667 364.11 412.684ZM364.11 298.918C374.755 298.918 385.161 302.217 394.012 308.398C402.863 314.579 409.762 323.364 413.835 333.642C417.909 343.921 418.975 355.231 416.898 366.143C414.821 377.055 409.695 387.077 402.168 394.944C394.641 402.811 385.051 408.169 374.611 410.339C364.17 412.51 353.348 411.396 343.514 407.138C333.679 402.881 325.273 395.671 319.359 386.42C313.445 377.17 310.289 366.294 310.289 355.169C310.305 340.255 315.981 325.957 326.071 315.412C336.161 304.866 349.841 298.934 364.11 298.918Z" fill="#2F2E41"/>
<path d="M194.784 412.684C205.668 412.684 216.308 409.311 225.358 402.991C234.407 396.671 241.461 387.688 245.626 377.179C249.791 366.669 250.881 355.105 248.758 343.948C246.634 332.791 241.393 322.543 233.697 314.499C226.001 306.456 216.195 300.978 205.52 298.759C194.845 296.539 183.78 297.679 173.724 302.032C163.669 306.385 155.074 313.757 149.027 323.215C142.98 332.673 139.753 343.793 139.753 355.169C139.769 370.418 145.572 385.037 155.889 395.819C166.206 406.602 180.194 412.667 194.784 412.684ZM194.784 298.918C205.429 298.918 215.835 302.217 224.686 308.398C233.537 314.579 240.435 323.364 244.509 333.642C248.582 343.921 249.648 355.231 247.571 366.143C245.495 377.055 240.369 387.077 232.842 394.944C225.315 402.811 215.724 408.169 205.284 410.339C194.844 412.51 184.022 411.396 174.187 407.138C164.353 402.881 155.947 395.671 150.033 386.42C144.119 377.17 140.962 366.294 140.962 355.169C140.978 340.255 146.654 325.957 156.744 315.412C166.834 304.866 180.514 298.934 194.784 298.918Z" fill="#2F2E41"/>
<path d="M364.11 358.961C362.107 358.961 360.482 357.263 360.482 355.169C360.482 353.074 362.107 351.376 364.11 351.376C366.114 351.376 367.739 353.074 367.739 355.169C367.739 357.263 366.114 358.961 364.11 358.961Z" fill="#2F2E41"/>
<path d="M193.574 358.961C191.571 358.961 189.946 357.263 189.946 355.169C189.946 353.074 191.571 351.376 193.574 351.376C195.578 351.376 197.203 353.074 197.203 355.169C197.203 357.263 195.578 358.961 193.574 358.961Z" fill="#2F2E41"/>
<path d="M358.716 349.728L359.829 349.232L328.222 271.731L238.594 273.643L238.421 273.927L194.275 345.979L195.293 346.661L239.265 274.894L327.43 273.013L358.716 349.728Z" fill="#2F2E41"/>
<path d="M264.556 364.133L241.326 278.52L240.162 278.865L262.893 362.637L202.117 354.542L201.965 355.796L264.556 364.133Z" fill="#2F2E41"/>
<path d="M330.418 290.89L331.282 291.776L268.994 358.139L268.13 357.254L330.418 290.89Z" fill="#2F2E41"/>
<path d="M235.283 258.301L238.906 272.207L237.739 272.539L234.116 258.633L235.283 258.301Z" fill="#2F2E41"/>
<path d="M326.027 268.088L327.207 267.808L324.351 254.675H334.478V246.459H333.269V253.411H322.835L326.027 268.088Z" fill="#2F2E41"/>
<path d="M257.072 245.827C257.072 245.827 257.072 242.034 249.21 243.931C241.349 245.827 217.159 250.883 215.345 250.251C213.531 249.619 214.136 254.043 221.997 255.939C229.859 257.835 238.93 253.411 240.744 252.147C242.558 250.883 257.072 245.827 257.072 245.827Z" fill="#2F2E41"/>
<path d="M278.842 358.961H294.566V365.281H278.842V358.961Z" fill="#F3BC2C"/>
<path d="M263.724 376.026C266.116 376.026 268.455 375.285 270.444 373.896C272.433 372.507 273.983 370.532 274.898 368.223C275.814 365.913 276.053 363.371 275.586 360.919C275.12 358.467 273.968 356.215 272.276 354.447C270.585 352.679 268.43 351.475 266.084 350.988C263.737 350.5 261.306 350.75 259.096 351.707C256.886 352.664 254.997 354.284 253.668 356.363C252.339 358.441 251.629 360.885 251.629 363.385C251.633 366.737 252.908 369.95 255.176 372.319C257.443 374.689 260.517 376.022 263.724 376.026ZM263.724 352.009C265.877 352.009 267.982 352.676 269.772 353.926C271.562 355.176 272.957 356.953 273.781 359.032C274.605 361.11 274.82 363.398 274.4 365.605C273.98 367.812 272.943 369.839 271.421 371.43C269.899 373.021 267.959 374.104 265.848 374.543C263.736 374.982 261.547 374.757 259.558 373.896C257.569 373.035 255.869 371.577 254.673 369.706C253.477 367.835 252.839 365.635 252.839 363.385C252.842 360.369 253.99 357.477 256.031 355.345C258.071 353.212 260.838 352.012 263.724 352.009Z" fill="#2F2E41"/>
<path d="M328.431 187.68C320.415 187.68 313.917 180.888 313.917 172.511C313.917 164.133 320.415 157.342 328.431 157.342C336.447 157.342 342.945 164.133 342.945 172.511C342.945 180.888 336.447 187.68 328.431 187.68Z" fill="#FFB8B8"/>
<path d="M282.471 243.299C282.471 243.299 324.198 268.58 323.593 276.796C322.988 285.013 291.542 329.887 291.542 329.887C291.542 329.887 289.123 343.16 286.704 343.16C284.285 343.16 269.167 348.848 268.562 345.056C267.957 341.264 273.4 336.84 272.795 334.312C272.19 331.784 299.404 285.645 299.404 285.645C299.404 285.645 241.163 262.892 253.351 243.299C265.538 223.706 282.471 243.299 282.471 243.299Z" fill="#2F2E41"/>
<path d="M281.261 340.632C281.261 340.632 288.518 342.528 289.728 345.056C290.937 347.584 312.103 355.801 306.056 357.697C300.008 359.593 264.934 360.225 263.724 358.961C262.515 357.697 263.724 343.026 268.562 343.093C273.4 343.16 278.843 345.056 281.261 340.632Z" fill="#2F2E41"/>
<path d="M328.431 195.896L314.824 178.515C314.824 178.515 299.404 173.775 292.751 183.255C286.099 192.736 267.957 216.121 261.91 221.177C255.862 226.234 247.396 245.827 250.42 246.459C253.444 247.091 270.376 239.506 277.028 244.563C283.68 249.619 296.38 250.251 296.985 247.723C297.589 245.195 333.874 202.848 333.874 197.16C333.874 191.472 330.007 190.251 330.007 190.251L328.431 195.896Z" fill="#CECCC6"/>
<path d="M321.123 246.146L339.368 239.404C340.312 239.055 341.349 239.573 341.683 240.56C342.017 241.547 341.522 242.63 340.577 242.98L322.332 249.721C321.388 250.07 320.351 249.553 320.017 248.565C319.683 247.578 320.178 246.495 321.123 246.146Z" fill="#2F2E41"/>
<path d="M362.296 238.242C362.296 238.242 383.462 244.563 381.648 251.515C379.834 258.467 360.482 243.298 360.482 243.298L362.296 238.242Z" fill="#FFB8B8"/>
<path d="M307.265 183.255C307.265 183.255 315.732 190.84 317.546 199.688C319.36 208.537 328.431 224.337 328.431 224.337L365.32 236.978C365.32 236.978 367.739 248.987 364.11 248.987C360.482 248.987 319.965 240.138 318.755 238.242C317.546 236.346 291.542 200.32 291.542 200.32C291.542 200.32 289.123 180.727 307.265 183.255Z" fill="#CECCC6"/>
<path d="M337.445 154.954C337.803 155.276 338.231 155.5 338.692 155.607C338.923 155.65 339.161 155.596 339.355 155.456C339.548 155.316 339.68 155.102 339.723 154.861C339.989 155.634 340.485 156.298 341.137 156.757C341.83 157.134 342.9 156.818 343 156.008C343.101 156.623 343.361 157.197 343.752 157.668C343.956 157.893 344.237 158.026 344.534 158.036C344.83 158.046 345.119 157.934 345.336 157.723C345.033 159.455 345.22 161.237 345.125 162.995C345.03 164.753 344.581 166.617 343.31 167.773C341.457 169.459 338.67 169.043 336.232 168.723C335.863 168.642 335.481 168.664 335.123 168.787C334.21 169.193 334.251 170.521 334.239 171.558C334.164 173.378 333.475 175.111 332.294 176.45C331.113 177.788 329.516 178.646 327.787 178.871C326.819 179.027 325.832 178.776 325.041 178.171C324.349 177.558 323.996 176.558 323.202 176.098C321.912 175.348 320.347 176.441 319.404 177.628C318.461 178.814 317.531 180.274 316.07 180.491C314.137 180.778 312.665 178.72 311.942 176.824C310.946 174.167 310.469 171.329 310.538 168.476C310.608 165.624 311.224 162.814 312.349 160.214C316.385 151.02 330.17 149.566 337.445 154.954Z" fill="#2F2E41"/>
<path d="M82.0677 412.658L83.1425 412.078C69.184 383.874 76.6481 347.247 85.3672 321.487C91.2877 304.173 98.8392 287.516 107.91 271.762L106.888 271.086C97.7698 286.921 90.1789 303.662 84.2274 321.065C75.428 347.06 67.9113 384.053 82.0677 412.658Z" fill="#2F2E41"/>
<path d="M71.7158 271.313L79.562 316.19L78.3726 316.417L70.5264 271.54L71.7158 271.313Z" fill="#2F2E41"/>
<path d="M123.889 309.548L124.775 310.409L84.2575 355.916L83.3718 355.054L123.889 309.548Z" fill="#2F2E41"/>
<path d="M51.0489 359.535L71.6005 389.248L70.6201 389.989L50.0686 360.276L51.0489 359.535Z" fill="#2F2E41"/>
<path d="M68.0914 259.415C64.7515 259.415 62.044 256.586 62.044 253.095C62.044 249.604 64.7515 246.775 68.0914 246.775C71.4313 246.775 74.1388 249.604 74.1388 253.095C74.1388 256.586 71.4313 259.415 68.0914 259.415Z" fill="#F3BC2C"/>
<path d="M134.008 308.082C130.668 308.082 127.96 305.252 127.96 301.762C127.96 298.271 130.668 295.441 134.008 295.441C137.348 295.441 140.055 298.271 140.055 301.762C140.055 305.252 137.348 308.082 134.008 308.082Z" fill="#3F3D56"/>
<path d="M107.399 314.402C104.059 314.402 101.352 311.573 101.352 308.082C101.352 304.591 104.059 301.762 107.399 301.762C110.739 301.762 113.447 304.591 113.447 308.082C113.447 311.573 110.739 314.402 107.399 314.402Z" fill="#3F3D56"/>
<path d="M119.494 339.052C116.154 339.052 113.447 336.222 113.447 332.731C113.447 329.241 116.154 326.411 119.494 326.411C122.834 326.411 125.541 329.241 125.541 332.731C125.541 336.222 122.834 339.052 119.494 339.052Z" fill="#F3BC2C"/>
<path d="M43.9019 354.853C40.562 354.853 37.8545 352.023 37.8545 348.532C37.8545 345.042 40.562 342.212 43.9019 342.212C47.2417 342.212 49.9492 345.042 49.9492 348.532C49.9492 352.023 47.2417 354.853 43.9019 354.853Z" fill="#3F3D56"/>
<path d="M63.8582 361.805C60.5184 361.805 57.8109 358.976 57.8109 355.485C57.8109 351.994 60.5184 349.165 63.8582 349.165C67.1981 349.165 69.9056 351.994 69.9056 355.485C69.9056 358.976 67.1981 361.805 63.8582 361.805Z" fill="#3F3D56"/>
<path d="M49.9492 382.03C46.6094 382.03 43.9019 379.201 43.9019 375.71C43.9019 372.219 46.6094 369.39 49.9492 369.39C53.2891 369.39 55.9966 372.219 55.9966 375.71C55.9966 379.201 53.2891 382.03 49.9492 382.03Z" fill="#3F3D56"/>
<path d="M113.447 267C110.107 267 107.399 264.17 107.399 260.679C107.399 257.189 110.107 254.359 113.447 254.359C116.787 254.359 119.494 257.189 119.494 260.679C119.494 264.17 116.787 267 113.447 267Z" fill="#3F3D56"/>
<path d="M20.9219 411.736H567V413H20.9219V411.736Z" fill="#2F2E41"/>
</svg>
