<svg width="24" height="21" viewBox="0 0 24 21" fill="none" xmlns="http://www.w3.org/2000/svg">
<path d="M3 17.25C3 17.6625 3.33562 18 3.75 18H22.5C23.3297 18 24 18.6703 24 19.5C24 20.3297 23.3297 21 22.5 21H3.75C1.67906 21 0 19.3219 0 17.25V1.5C0 0.671719 0.671719 0 1.5 0C2.32828 0 3 0.671719 3 1.5V17.25ZM16.0594 11.5594C15.4734 12.1453 14.5266 12.1453 13.9406 11.5594L11.25 8.87344L7.05938 13.0594C6.47344 13.6453 5.52656 13.6453 4.94063 13.0594C4.35375 12.4734 4.35375 11.5266 4.94063 10.9406L10.1906 5.69062C10.7766 5.10469 11.7234 5.10469 12.3094 5.69062L15 8.37656L19.9406 3.44063C20.5266 2.85375 21.4734 2.85375 22.0594 3.44063C22.6453 4.02656 22.6453 4.97344 22.0594 5.55938L16.0594 11.5594Z" fill="#F3BC2C"/>
</svg>
