<svg width="30" height="30" viewBox="0 0 30 30" fill="none" xmlns="http://www.w3.org/2000/svg">
<path d="M27.1875 3.75C28.7402 3.75 30 5.00918 30 6.5625C30 7.44727 29.584 8.2793 28.875 8.8125L16.125 18.375C15.457 18.873 14.543 18.873 13.875 18.375L1.125 8.8125C0.416777 8.2793 0 7.44727 0 6.5625C0 5.00918 1.25918 3.75 2.8125 3.75H27.1875ZM12.75 19.875C14.0859 20.877 15.9141 20.877 17.25 19.875L30 10.3125V22.5C30 24.5684 28.3184 26.25 26.25 26.25H3.75C1.67871 26.25 0 24.5684 0 22.5V10.3125L12.75 19.875Z" fill="#F3BC2C"/>
</svg>
