<svg width="30" height="35" viewBox="0 0 30 35" fill="none" xmlns="http://www.w3.org/2000/svg">
<g clip-path="url(#clip0_537_220)">
<path d="M23.5714 7.43973C25.0507 7.43973 26.25 6.24241 26.25 4.76317C26.25 3.28393 23.5714 0 23.5714 0C23.5714 0 20.8929 3.34219 20.8929 4.82143C20.8929 6.30067 22.0915 7.43973 23.5714 7.43973ZM15 7.43973C16.4792 7.43973 17.6786 6.24241 17.6786 4.76317C17.6786 3.28393 15 0 15 0C15 0 12.3214 3.34219 12.3214 4.82143C12.3214 6.30067 13.5201 7.43973 15 7.43973ZM25.654 14.9397L25.7143 10.7143C25.7143 10.1226 25.2346 9.64286 24.6429 9.64286H22.5C21.9107 9.64286 21.4286 10.125 21.4286 10.7143V15H17.1429V10.7143C17.1429 10.1226 16.6631 9.64286 16.0714 9.64286H13.9286C13.3393 9.64286 12.8571 10.125 12.8571 10.7143V15H8.57143V10.7143C8.57143 10.1226 8.0917 9.64286 7.5 9.64286H5.35714C4.76518 9.64286 4.28571 10.125 4.28571 10.7143V14.998C1.91853 14.998 0 16.9165 0 19.2234V23.8239C0.657187 24.2325 1.43237 24.5826 2.14286 24.5826C3.525 24.5826 5.1596 23.2614 5.67187 22.7525C6.0904 22.336 6.76607 22.336 7.1846 22.7525C7.64062 23.3237 9.33482 24.5826 10.7143 24.5826C12.0938 24.5826 13.731 23.2614 14.2433 22.7525C14.6618 22.336 15.3375 22.336 15.756 22.7525C16.2121 23.3237 17.9062 24.5826 19.2857 24.5826C20.6652 24.5826 22.3025 23.2614 22.8147 22.7525C23.2333 22.336 23.9089 22.336 24.3275 22.7525C24.7835 23.3237 26.4777 24.5826 27.8571 24.5826C28.5676 24.5826 29.3431 24.2326 30 23.8239V19.2254C30 16.9152 28.0781 14.9397 25.654 14.9397ZM23.5714 24.9978C22.6507 25.731 21.0248 26.783 19.2857 26.783C17.5467 26.783 15.9208 25.7317 15 24.9978C14.0792 25.731 12.4533 26.783 10.7143 26.783C8.97522 26.783 7.34933 25.7317 6.42857 24.9978C5.50781 25.731 3.88192 26.783 2.14286 26.783C1.38817 26.783 0.663616 26.574 0 26.289V32.1404C0 33.3281 0.959598 34.2857 2.14286 34.2857H27.8571C29.0404 34.2857 30 33.3261 30 32.1429V26.2915C29.3364 26.5765 28.6118 26.7855 27.8571 26.7855C26.1161 26.7254 24.4955 25.7344 23.5714 24.9978ZM6.42857 7.43973C7.90781 7.43973 9.10714 6.24241 9.10714 4.76317C9.10714 3.28393 6.42857 0 6.42857 0C6.42857 0 3.75 3.34219 3.75 4.82143C3.75 6.30067 4.94933 7.43973 6.42857 7.43973Z" fill="#F3BC2C"/>
</g>
<defs>
<clipPath id="clip0_537_220">
<rect width="30" height="34.2857" fill="white"/>
</clipPath>
</defs>
</svg>
