<svg width="24" height="24" viewBox="0 0 24 24" fill="none" xmlns="http://www.w3.org/2000/svg">
<path d="M7.50024 20.5721H4.50014C3.67184 20.5721 3.0001 19.8044 3.0001 18.8577V5.14302C3.0001 4.19638 3.67184 3.42868 4.50014 3.42868H7.50024C8.32855 3.42868 9.00029 2.66098 9.00029 1.71434C9.00029 0.767703 8.32995 0 7.50024 0H4.50014C2.01475 0 0 2.30257 0 5.14302V18.8577C0 21.6982 2.01475 24.0008 4.50014 24.0008H7.50024C8.32855 24.0008 9.00029 23.2331 9.00029 22.2864C9.00029 21.3398 8.32995 20.5721 7.50024 20.5721ZM23.5601 10.7896L17.5599 3.93227C16.9735 3.26207 16.0243 3.26314 15.4388 3.93227C14.8528 4.60193 14.8528 5.68679 15.4388 6.35645L18.8818 10.286H9.00029C8.17057 10.286 7.50024 11.0521 7.50024 12.0004C7.50024 12.9486 8.17104 13.7147 9.00029 13.7147H18.8818L15.4421 17.6459C14.8561 18.3156 14.8561 19.4004 15.4421 20.0701C16.028 20.7398 16.9773 20.7398 17.5632 20.0701L23.5634 13.2127C24.1461 12.5415 24.1461 11.4593 23.5601 10.7896Z" fill="#CE1935"/>
</svg>
