<svg width="514" height="425" viewBox="0 0 514 425" fill="none" xmlns="http://www.w3.org/2000/svg">
<g clip-path="url(#clip0_42_171)">
<path d="M370.143 160.644C368.617 159.013 366.804 157.72 364.807 156.839C362.81 155.957 360.669 155.506 358.508 155.511V145.301C358.509 142.964 358.078 140.65 357.239 138.491C356.401 136.331 355.171 134.37 353.62 132.717C352.069 131.065 350.227 129.755 348.201 128.861C346.174 127.968 344.002 127.508 341.808 127.51V119.815H345.783C347.483 119.815 349.114 119.096 350.316 117.815C351.518 116.534 352.193 114.797 352.193 112.986C352.193 111.175 351.518 109.438 350.316 108.157C349.114 106.876 347.483 106.157 345.783 106.157H341.808V100.818H339.842V106.157H335.099C333.399 106.157 331.768 106.876 330.566 108.157C329.364 109.438 328.688 111.175 328.688 112.986C328.688 114.797 329.364 116.534 330.566 117.815C331.768 119.096 333.399 119.815 335.099 119.815H339.842V127.51H327.599C326.434 127.51 325.281 127.754 324.205 128.229C323.129 128.703 322.151 129.399 321.328 130.277C320.504 131.154 319.851 132.195 319.405 133.342C318.96 134.488 318.731 135.717 318.731 136.957V155.511H315.9C311.53 155.51 307.204 156.427 303.167 158.208C299.13 159.989 295.463 162.6 292.373 165.891C289.284 169.183 286.833 173.09 285.161 177.391C283.489 181.691 282.629 186.301 282.629 190.955V215.751C276.583 217.606 271.113 221.15 266.784 226.015C262.455 230.879 259.425 236.888 258.008 243.419H243.424V227.72H234.583V221.119H240.01C241.71 221.119 243.341 220.399 244.543 219.118C245.745 217.838 246.421 216.1 246.421 214.289C246.421 212.478 245.745 210.741 244.543 209.46C243.341 208.179 241.71 207.46 240.01 207.46H234.583V203.126H232.618V207.46H229.326C227.626 207.46 225.996 208.179 224.793 209.46C223.591 210.741 222.916 212.478 222.916 214.289C222.916 216.1 223.591 217.838 224.793 219.118C225.996 220.399 227.626 221.119 229.326 221.119H232.618V227.748C230.361 227.888 228.239 228.941 226.687 230.692C225.134 232.444 224.269 234.761 224.268 237.17V243.475C215.775 243.976 207.784 247.923 201.938 254.505C196.091 261.088 192.833 269.806 192.833 278.868V423.952H282.629V423.953H374.961V173.039C374.965 170.737 374.542 168.456 373.715 166.329C372.888 164.201 371.674 162.269 370.143 160.644Z" fill="#F2F2F2"/>
<path d="M184.444 155.507V145.303C184.444 142.966 184.012 140.653 183.172 138.494C182.333 136.336 181.103 134.374 179.552 132.722C178.001 131.07 176.16 129.76 174.134 128.865C172.108 127.971 169.936 127.511 167.743 127.511V117.539H171.632C173.332 117.539 174.963 116.819 176.165 115.539C177.367 114.258 178.042 112.521 178.042 110.709C178.042 108.898 177.367 107.161 176.165 105.88C174.963 104.6 173.332 103.88 171.632 103.88H167.743V100.824H165.779V103.88H160.948C159.248 103.88 157.617 104.6 156.415 105.88C155.213 107.161 154.537 108.898 154.537 110.709C154.537 112.521 155.213 114.258 156.415 115.539C157.617 116.819 159.248 117.539 160.948 117.539H165.779V127.511H153.528C152.363 127.511 151.21 127.756 150.134 128.231C149.057 128.705 148.08 129.402 147.256 130.279C146.432 131.157 145.779 132.198 145.333 133.345C144.887 134.491 144.658 135.72 144.658 136.961V155.507H141.831C133.006 155.507 124.542 159.242 118.302 165.89C112.062 172.538 108.556 181.554 108.556 190.956V213.925C102.963 216.492 98.0895 220.558 94.4086 225.726C90.7276 230.894 88.3648 236.989 87.55 243.419H69.3561V227.72H60.5149V218.842H63.7226C65.4228 218.842 67.0533 218.123 68.2555 216.842C69.4577 215.561 70.1331 213.824 70.1331 212.013C70.1331 210.201 69.4577 208.464 68.2555 207.183C67.0533 205.903 65.4228 205.183 63.7226 205.183H60.5149V203.126H58.5501V205.183H53.0385C51.3383 205.183 49.7078 205.903 48.5056 207.183C47.3034 208.464 46.628 210.201 46.628 212.013C46.628 213.824 47.3034 215.561 48.5056 216.842C49.7078 218.123 51.3383 218.842 53.0385 218.842H58.5501V227.748C56.2928 227.888 54.1708 228.941 52.6186 230.692C51.0663 232.444 50.2011 234.761 50.2 237.17V243.475C41.7067 243.976 33.7159 247.923 27.8694 254.505C22.0229 261.088 18.7648 269.806 18.7643 278.868V423.952H200.898V173.037C200.898 170.735 200.473 168.455 199.646 166.328C198.819 164.202 197.607 162.269 196.079 160.641C194.551 159.013 192.737 157.722 190.74 156.841C188.744 155.96 186.604 155.507 184.444 155.507Z" fill="#F2F2F2"/>
<path d="M63.4619 306.213H75.7415V295.747H63.4619V306.213Z" fill="white"/>
<path d="M43.3235 306.213H55.603V295.747H43.3235V306.213Z" fill="white"/>
<path d="M63.4619 332.9H75.7415V322.435H63.4619V332.9Z" fill="white"/>
<path d="M43.3235 332.9H55.603V322.435H43.3235V332.9Z" fill="white"/>
<path d="M63.4619 359.588H75.7415V349.122H63.4619V359.588Z" fill="white"/>
<path d="M43.3235 359.588H55.603V349.122H43.3235V359.588Z" fill="white"/>
<path d="M43.3235 386.275H55.603V375.81H43.3235V386.275Z" fill="white"/>
<path d="M43.3235 412.963H55.603V402.497H43.3235V412.963Z" fill="white"/>
<path d="M134.834 276.647H174.62V273.508H134.834V276.647Z" fill="white"/>
<path d="M134.834 296.009H174.62V292.869H134.834V296.009Z" fill="white"/>
<path d="M134.834 315.37H174.62V312.231H134.834V315.37Z" fill="white"/>
<path d="M158.411 143.733H170.69V133.267H158.411V143.733Z" fill="white"/>
<path d="M237.53 332.9H249.81V322.435H237.53V332.9Z" fill="white"/>
<path d="M217.392 332.9H229.671V322.435H217.392V332.9Z" fill="white"/>
<path d="M237.53 359.588H249.81V349.122H237.53V359.588Z" fill="white"/>
<path d="M217.392 359.588H229.671V349.122H217.392V359.588Z" fill="white"/>
<path d="M237.53 386.275H249.81V375.81H237.53V386.275Z" fill="white"/>
<path d="M217.392 386.275H229.671V375.81H217.392V386.275Z" fill="white"/>
<path d="M237.53 412.963H249.81V402.497H237.53V412.963Z" fill="white"/>
<path d="M217.392 412.963H229.671V402.497H217.392V412.963Z" fill="white"/>
<path d="M332.479 143.733H344.759V133.267H332.479V143.733Z" fill="white"/>
<path d="M374.961 177.866H344.714V184.695H374.961V177.866Z" fill="white"/>
<path d="M374.961 198.354H344.714V205.183H374.961V198.354Z" fill="white"/>
<path d="M374.961 218.842H344.714V225.672H374.961V218.842Z" fill="white"/>
<path d="M374.961 239.33H344.714V246.16H374.961V239.33Z" fill="white"/>
<path d="M374.961 259.819H344.714V266.648H374.961V259.819Z" fill="white"/>
<path d="M374.961 280.307H344.714V287.136H374.961V280.307Z" fill="white"/>
<path d="M200.021 319.127L206.97 325.322L233.207 299.078L222.951 289.935L200.021 319.127Z" fill="#FFB6B6"/>
<path d="M220.58 317.032L205.863 306.209L244.612 240.759C216.528 223.369 197.214 202.153 181.454 178.85C176.099 170.986 172.834 161.833 180.306 155.933C180.655 155.657 181.013 155.396 181.381 155.149C189.901 149.494 187.135 157.97 198.814 153.807L209.366 165.799L232.164 189.432L271.051 215.878C278.871 221.196 281.041 232.383 275.898 240.864C275.626 241.311 275.337 241.746 275.03 242.168L220.58 317.032Z" fill="#2F2E41"/>
<path d="M200.901 314.08L213.086 323.689L208.925 328.986L213.581 346.941C213.811 347.828 213.769 348.77 213.461 349.629C213.153 350.489 212.595 351.221 211.869 351.719C211.143 352.217 210.286 352.454 209.424 352.397C208.562 352.339 207.74 351.99 207.078 351.399L193.262 339.081L194.996 331.718L189.95 336.129L184.741 331.484L200.901 314.08Z" fill="#2F2E41"/>
<path d="M183.895 248.684L108.739 277.317L110.917 283.805L186.073 255.172L183.895 248.684Z" fill="#3F3D56"/>
<path d="M201.471 359.445L181.889 341.431C180.526 340.177 179.687 338.397 179.556 336.484C179.424 334.571 180.012 332.68 181.189 331.228C182.365 329.776 184.035 328.881 185.831 328.741C187.627 328.6 189.402 329.225 190.766 330.478L210.348 348.492C211.024 349.113 211.578 349.869 211.979 350.718C212.38 351.567 212.62 352.492 212.685 353.44C212.75 354.388 212.64 355.34 212.36 356.243C212.079 357.145 211.635 357.979 211.052 358.699C210.469 359.418 209.759 360.008 208.962 360.435C208.165 360.862 207.296 361.117 206.407 361.186C205.517 361.256 204.623 361.137 203.776 360.839C202.93 360.54 202.146 360.066 201.471 359.445V359.445Z" fill="#3F3D56"/>
<path d="M312.713 151.33C311.475 151.784 310.159 151.945 308.857 151.799C307.555 151.653 306.299 151.205 305.177 150.486C304.055 149.767 303.095 148.795 302.364 147.638C301.633 146.481 301.149 145.167 300.946 143.79L230.991 124.599L242.4 111.846L309.028 132.689C311.223 132.479 313.414 133.135 315.186 134.531C316.958 135.928 318.188 137.968 318.642 140.266C319.096 142.563 318.744 144.959 317.651 146.998C316.558 149.037 314.801 150.578 312.713 151.33H312.713Z" fill="#FFB6B6"/>
<path d="M206.441 62.226C206.441 62.226 195.066 63.63 195.27 77.5945C195.475 91.559 223.358 123.37 227.708 128.641C232.058 133.912 275.471 136.604 275.471 136.604L289.032 123.901L248.821 109.467L206.441 62.226Z" fill="#F9A826"/>
<path d="M183.368 127.77L180.802 140.593C180.802 140.593 176.132 151.264 177.038 154.116C177.936 156.951 218.358 172.366 218.358 172.366C218.358 172.366 221.821 153.138 227.6 140.169L183.368 127.77Z" fill="#FFB6B6"/>
<path d="M312.915 328.322L289.57 340.204C287.944 341.031 286.077 341.137 284.379 340.498C282.681 339.858 281.29 338.526 280.514 336.795C279.737 335.063 279.638 333.074 280.238 331.265C280.839 329.456 282.089 327.974 283.714 327.147L307.059 315.265C308.684 314.438 310.551 314.332 312.25 314.972C313.948 315.611 315.338 316.943 316.115 318.674C316.891 320.406 316.99 322.395 316.39 324.204C315.79 326.014 314.54 327.495 312.915 328.322Z" fill="#3F3D56"/>
<path d="M401.467 423.173C386.886 423.173 372.633 418.566 360.509 409.936C348.385 401.306 338.936 389.039 333.356 374.688C327.776 360.336 326.316 344.544 329.161 329.309C332.005 314.073 339.027 300.078 349.337 289.094C359.647 278.11 372.784 270.629 387.085 267.599C401.385 264.568 416.209 266.124 429.68 272.068C443.151 278.013 454.665 288.08 462.766 300.996C470.867 313.912 475.19 329.097 475.19 344.631C475.168 365.454 467.394 385.418 453.573 400.142C439.752 414.867 421.013 423.149 401.467 423.173ZM401.467 273.362C388.236 273.362 375.302 277.542 364.301 285.373C353.3 293.204 344.726 304.335 339.663 317.358C334.599 330.38 333.274 344.71 335.856 358.535C338.437 372.36 344.808 385.059 354.164 395.026C363.52 404.993 375.44 411.781 388.416 414.531C401.393 417.281 414.844 415.869 427.068 410.475C439.291 405.081 449.739 395.946 457.09 384.226C464.441 372.506 468.364 358.727 468.364 344.631C468.344 325.736 461.29 307.621 448.748 294.26C436.207 280.899 419.203 273.383 401.467 273.362Z" fill="#3F3D56"/>
<path d="M404.714 361.155C410.43 361.155 415.063 356.219 415.063 350.13C415.063 344.041 410.43 339.104 404.714 339.104C398.999 339.104 394.365 344.041 394.365 350.13C394.365 356.219 398.999 361.155 404.714 361.155Z" fill="#3F3D56"/>
<path d="M98.4758 424.243C84.6597 424.243 71.1539 419.878 59.6662 411.701C48.1786 403.524 39.225 391.901 33.9378 378.302C28.6506 364.703 27.2673 349.74 29.9626 335.303C32.658 320.867 39.3111 307.607 49.0806 297.199C58.85 286.791 71.2971 279.703 84.8477 276.831C98.3983 273.96 112.444 275.433 125.208 281.066C137.973 286.699 148.883 296.238 156.558 308.476C164.234 320.715 168.331 335.103 168.331 349.822C168.31 369.553 160.944 388.469 147.848 402.421C134.752 416.373 116.996 424.221 98.4758 424.243ZM98.4758 282.292C85.939 282.292 73.6837 286.253 63.2597 293.673C52.8357 301.093 44.7112 311.64 39.9136 323.98C35.1159 336.319 33.8606 349.897 36.3065 362.997C38.7523 376.096 44.7893 388.129 53.6542 397.573C62.5191 407.018 73.8136 413.449 86.1096 416.055C98.4055 418.66 111.151 417.323 122.733 412.212C134.316 407.101 144.215 398.445 151.18 387.34C158.146 376.235 161.863 363.178 161.863 349.822C161.844 331.918 155.16 314.754 143.276 302.094C131.393 289.434 115.281 282.312 98.4758 282.292Z" fill="#3F3D56"/>
<path d="M98.4757 360.847C104.191 360.847 108.825 355.911 108.825 349.822C108.825 343.733 104.191 338.797 98.4757 338.797C92.7601 338.797 88.1267 343.733 88.1267 349.822C88.1267 355.911 92.7601 360.847 98.4757 360.847Z" fill="#3F3D56"/>
<path d="M238.833 361.229C245.461 361.229 250.834 355.505 250.834 348.444C250.834 341.383 245.461 335.659 238.833 335.659C232.206 335.659 226.833 341.383 226.833 348.444C226.833 355.505 232.206 361.229 238.833 361.229Z" fill="#3F3D56"/>
<path d="M101.133 349.041L96.4141 344.328L180.651 248.592L330.978 200.661L405.584 340.155L399.964 343.567L327.905 208.834L184.178 254.66L101.133 349.041Z" fill="#3F3D56"/>
<path d="M228.642 344.694H165.078V351.585H228.642V344.694Z" fill="#3F3D56"/>
<path d="M185.649 215.598H179.18V251.626H185.649V215.598Z" fill="#3F3D56"/>
<path d="M311.417 134.077L305.262 136.195L326.363 205.807L332.518 203.689L311.417 134.077Z" fill="#3F3D56"/>
<path d="M185.003 247.093L179.421 250.576L232.46 347.048L238.041 343.565L185.003 247.093Z" fill="#3F3D56"/>
<path d="M359.554 261.144L245.72 343.842L249.364 349.535L363.198 266.837L359.554 261.144Z" fill="#3F3D56"/>
<path d="M194.825 219.893H168.952C167.151 219.893 165.424 219.131 164.15 217.774C162.876 216.417 162.161 214.577 162.161 212.658C162.161 210.739 162.876 208.898 164.15 207.542C165.424 206.185 167.151 205.422 168.952 205.422H194.825C196.626 205.422 198.353 206.185 199.627 207.542C200.901 208.898 201.616 210.739 201.616 212.658C201.616 214.577 200.901 216.417 199.627 217.774C198.353 219.131 196.626 219.893 194.825 219.893Z" fill="#F9A826"/>
<path d="M320.953 142.027H295.08C293.279 142.027 291.552 141.264 290.278 139.908C289.004 138.551 288.289 136.71 288.289 134.791C288.289 132.872 289.004 131.032 290.278 129.675C291.552 128.318 293.279 127.556 295.08 127.556H320.953C322.754 127.556 324.481 128.318 325.755 129.675C327.029 131.032 327.744 132.872 327.744 134.791C327.744 136.71 327.029 138.551 325.755 139.908C324.481 141.264 322.754 142.027 320.953 142.027Z" fill="#F9A826"/>
<path d="M487.811 380.331L488.551 362.608C496.263 358.216 504.866 355.896 513.611 355.85C501.575 366.334 503.079 386.542 494.919 400.64C492.342 405.016 488.874 408.719 484.772 411.473C480.669 414.227 476.038 415.963 471.22 416.551L461.148 423.12C459.766 414.912 460.071 406.482 462.041 398.411C464.012 390.34 467.601 382.82 472.562 376.37C475.379 372.78 478.609 369.583 482.176 366.853C484.588 373.63 487.811 380.331 487.811 380.331Z" fill="#F2F2F2"/>
<path d="M514 423.554C514 423.662 513.981 423.769 513.942 423.869C513.903 423.968 513.847 424.059 513.775 424.135C513.704 424.211 513.619 424.272 513.525 424.313C513.432 424.354 513.331 424.375 513.23 424.374H0.769705C0.565567 424.374 0.369787 424.288 0.22544 424.134C0.0810924 423.98 0 423.772 0 423.554C0 423.337 0.0810924 423.128 0.22544 422.975C0.369787 422.821 0.565567 422.734 0.769705 422.734H513.23C513.331 422.734 513.432 422.755 513.525 422.796C513.619 422.837 513.704 422.898 513.775 422.974C513.847 423.05 513.903 423.141 513.942 423.24C513.981 423.34 514 423.447 514 423.554Z" fill="#CCCCCC"/>
<path d="M224.965 51.9693C235.378 50.0833 242.384 39.5614 240.614 28.468C238.844 17.3746 228.967 9.91048 218.554 11.7965C208.142 13.6825 201.135 24.2044 202.906 35.2978C204.676 46.3913 214.552 53.8553 224.965 51.9693Z" fill="#FFB6B6"/>
<path d="M430.039 127.514C439.577 127.514 447.309 119.277 447.309 109.115C447.309 98.9536 439.577 90.7161 430.039 90.7161C420.501 90.7161 412.769 98.9536 412.769 109.115C412.769 119.277 420.501 127.514 430.039 127.514Z" fill="#FD6584"/>
<path d="M468.694 100.404C468.206 98.702 467.261 97.1894 465.976 96.0519C464.692 94.9145 463.123 94.2019 461.463 94.0018C461.426 93.9961 461.39 94.0036 461.353 94.001C461.304 93.9853 461.255 93.9732 461.205 93.9648C453.307 92.8774 444.19 96.9016 440.899 104.879C440.096 103.712 439.038 102.771 437.817 102.137C436.596 101.504 435.249 101.196 433.892 101.241C432.141 101.365 430.47 102.061 429.104 103.234C427.738 104.407 426.745 105.999 426.259 107.795C426.207 108.015 426.223 108.246 426.303 108.456C426.383 108.666 426.524 108.843 426.705 108.962C427.227 109.433 427.845 109.767 428.509 109.938C429.944 110.262 431.383 110.558 432.828 110.828C435.646 111.353 438.48 111.778 441.328 112.102C447.11 112.762 452.927 112.997 458.739 112.803C460.675 112.739 462.541 112.671 464.315 111.761C465.605 111.082 466.707 110.057 467.513 108.787C468.273 107.566 468.772 106.183 468.976 104.735C469.18 103.287 469.084 101.808 468.694 100.404Z" fill="#F0F0F0"/>
<path d="M432.799 124.936C432.311 123.234 431.366 121.721 430.081 120.584C428.797 119.447 427.228 118.734 425.568 118.534C425.53 118.528 425.495 118.536 425.458 118.533C425.409 118.517 425.36 118.505 425.31 118.497C417.412 117.409 408.295 121.434 405.004 129.411C404.2 128.244 403.143 127.303 401.922 126.669C400.701 126.035 399.354 125.728 397.997 125.773C396.246 125.897 394.574 126.593 393.209 127.766C391.843 128.939 390.85 130.531 390.364 132.327C390.312 132.547 390.328 132.778 390.408 132.988C390.488 133.198 390.629 133.375 390.81 133.494C391.332 133.965 391.95 134.299 392.614 134.47C394.049 134.794 395.488 135.09 396.933 135.36C399.751 135.885 402.585 136.31 405.433 136.634C411.215 137.294 417.032 137.529 422.844 137.335C424.779 137.271 426.646 137.203 428.42 136.293C429.71 135.614 430.812 134.589 431.618 133.319C432.378 132.098 432.877 130.715 433.081 129.267C433.285 127.818 433.189 126.34 432.799 124.936Z" fill="#F0F0F0"/>
<path d="M340.137 226.802L318.538 178.229L318.83 178.081C320.327 177.326 321.949 176.892 323.603 176.804C325.257 176.716 326.911 176.976 328.471 177.57C330.031 178.163 331.466 179.078 332.694 180.262C333.922 181.447 334.919 182.877 335.628 184.472L346.427 208.759C347.137 210.353 347.544 212.081 347.626 213.844C347.709 215.606 347.464 217.368 346.907 219.03C346.35 220.692 345.492 222.221 344.38 223.529C343.268 224.837 341.926 225.899 340.429 226.654L340.137 226.802Z" fill="#3F3D56"/>
<path d="M274.112 235.34C271.392 235.332 268.748 234.39 266.572 232.653C264.395 230.916 262.803 228.477 262.032 225.699L261.94 225.368L310.329 210.158L310.421 210.488C310.89 212.181 311.041 213.955 310.866 215.71C310.691 217.464 310.194 219.165 309.402 220.715C308.61 222.265 307.539 223.634 306.251 224.743C304.962 225.852 303.482 226.679 301.893 227.179L277.699 234.784C276.534 235.151 275.326 235.338 274.112 235.34Z" fill="#3F3D56"/>
<path d="M280.331 319.05L289.136 316.736L285.066 278.632L272.07 282.049L280.331 319.05Z" fill="#FFB6B6"/>
<path d="M276.161 308.116L289.902 301.295L292.285 307.719L309.318 311.929C310.159 312.137 310.916 312.626 311.478 313.325C312.04 314.023 312.377 314.895 312.442 315.812C312.506 316.73 312.293 317.645 311.834 318.425C311.375 319.204 310.694 319.807 309.891 320.145L293.136 327.2L287.891 322.062L289.121 328.891L282.804 331.551L276.161 308.116Z" fill="#2F2E41"/>
<path d="M289.63 284.715L270.855 296.71L250.831 221.371C218.348 221.076 188.314 217.201 163.792 205.268C155.484 201.26 151.788 190.661 155.537 181.594C155.712 181.17 155.902 180.754 156.107 180.345C160.881 170.937 170.135 165.413 178.347 155.635L219.08 171.657L216.161 183.343L262.238 185.807C271.504 186.303 278.588 194.877 278.061 204.959C278.033 205.492 277.984 206.022 277.914 206.55L289.63 284.715Z" fill="#2F2E41"/>
<path d="M209.981 51.7726L222.498 58.7456C223.19 59.0396 223.778 59.5562 224.181 60.2233C224.584 60.8903 224.781 61.6747 224.746 62.4671L228.007 76.3672L239.479 102.238C239.479 102.238 242.469 116.006 236.764 129.006C231.059 142.006 218.433 174.414 218.433 174.414C210.199 195.426 142.606 179.199 160.221 161.321C162.316 159.194 174.096 141.225 178.407 140.192L188.982 75.7177C189.515 72.3137 190.749 69.0775 192.594 66.2413C194.44 63.405 196.852 61.039 199.657 59.3128C201.351 58.2923 202.922 57.6881 203.998 57.9965C206.452 58.6056 207.611 52.6858 209.981 51.7726Z" fill="#F9A826"/>
<path d="M318.696 137.203C317.558 137.892 316.292 138.306 314.987 138.417C313.682 138.529 312.37 138.334 311.143 137.846C309.917 137.359 308.805 136.591 307.887 135.596C306.97 134.602 306.268 133.405 305.831 132.09L233.758 126.898L242.777 112.131L311.864 119.598C313.986 118.963 316.253 119.179 318.235 120.206C320.217 121.232 321.777 122.998 322.62 125.168C323.462 127.338 323.527 129.761 322.804 131.979C322.081 134.197 320.619 136.056 318.696 137.203Z" fill="#FFB6B6"/>
<path d="M198.884 70.3816C198.884 70.3816 187.944 73.9849 190.549 87.6725C193.155 101.36 226.043 127.182 231.227 131.513C236.411 135.844 279.551 130.006 279.551 130.006L290.694 114.867L248.68 108.538L198.884 70.3816Z" fill="#F9A826"/>
<path d="M242.159 25.1426C239.272 26.6582 236.002 24.4616 233.475 22.2771L234.379 23.0919C229.995 27.7303 227.989 34.3565 227.04 40.868C226.09 47.3727 226.041 54.0148 224.828 60.4763C223.615 66.9309 221.03 73.4311 216.124 77.4301C209.552 82.7863 200.414 82.5473 192.271 81.0167C192.162 80.9944 192.061 80.9778 191.952 80.9555C194.074 74.2044 194.895 67.0661 194.364 59.969C192.254 67.1101 188.607 73.6274 183.715 79.0016C178.311 77.4808 173.031 75.4965 167.927 73.0681C164.625 71.4924 161.065 69.3274 160.117 65.6059C159.166 61.9127 161.252 58.0051 164.069 55.6356C166.887 53.2661 170.36 52.0079 173.579 50.3065C176.792 48.6131 179.965 46.2141 181.224 42.631C184.127 34.3885 175.54 25.061 178.773 16.9544C180.368 12.968 184.347 10.7656 188.09 9.06012C193.804 6.46337 199.677 4.28113 205.667 2.52833C210.926 0.988661 216.421 -0.223269 221.802 0.689283C227.184 1.60183 232.48 5.02503 234.466 10.4389C237.703 11.565 241.14 12.8366 243.239 15.7068C245.336 18.5701 245.217 23.5403 242.159 25.1426Z" fill="#2F2E41"/>
<path d="M152.902 375.3H43.7614V376.678H152.902V375.3Z" fill="#3F3D56"/>
<path d="M152.902 389.082H43.7614V390.46H152.902V389.082Z" fill="#3F3D56"/>
<path d="M459.49 375.3H350.349V376.678H459.49V375.3Z" fill="#3F3D56"/>
<path d="M459.49 389.082H350.349V390.46H459.49V389.082Z" fill="#3F3D56"/>
<path d="M345.633 209.526C349.487 208.008 350.853 201.714 348.686 195.467C346.518 189.221 341.637 185.387 337.784 186.904C333.931 188.422 332.564 194.716 334.732 200.963C336.899 207.21 341.78 211.043 345.633 209.526Z" fill="#F9A826"/>
</g>
<defs>
<clipPath id="clip0_42_171">
<rect width="514" height="424" fill="white" transform="translate(0 0.37439)"/>
</clipPath>
</defs>
</svg>
